<svg xmlns="http://www.w3.org/2000/svg" version="1.1" xmlns:xlink="http://www.w3.org/1999/xlink" xmlns:svgjs="http://svgjs.dev/svgjs" width="100%" height="100%" viewBox="0 0 1000 600"><rect width="1000" height="600" x="0" y="0" fill="#00000"/><g><rect width="333.3333333333333" height="333.3333333333333" rx="13.333333333333334" ry="13.333333333333334" y="375.0771537767258" fill=" #521cb6" transform="matrix(0.35425316146749514,0,0,0.3542531614674952,0,108.08551442348875)" x="352.85501098632807"/><path d="M383.03196831961253 616.7438262248021L444.29056239702135 616.7438262248021L444.29056239702135 610.2375449037542L424.5228442849846 610.2375449037542L424.5228442849846 547.9834542307751L448.2725487793021 547.9834542307751L488.27017985131886 616.7438262248021L526.0279435833027 616.7438262248021Q526.0279435833027 611.2330414993243 523.0414537965921 610.4864190526465L523.0414537965921 610.4864190526465Q521.7970830521294 610.2375449037542 520.0194105600397 610.2375449037542L520.0194105600397 610.2375449037542L510.52663945228113 610.2375449037542L470.2801342313718 545.7435868907421Q494.0298387256893 539.9839280163717 502.7759873867703 520.9983858008544L502.7759873867703 520.9983858008544Q506.0469047722152 513.4966078842361 506.0469047722152 505.74595581872535L506.0469047722152 505.74595581872535Q506.0469047722152 487.0092877521006 489.798978194516 475.73884415225234L489.798978194516 475.73884415225234Q476.5375414035273 466.74382134227875 457.05425089022486 466.74382134227875L457.05425089022486 466.74382134227875L383.03196831961253 466.74382134227875L383.03196831961253 473.2501026633268L403.0485605805418 473.2501026633268L403.0485605805418 610.2375449037542L383.03196831961253 610.2375449037542L383.03196831961253 616.7438262248021ZM424.5228442849846 473.2501026633268L449.55247297360665 473.2501026633268Q471.0267566780494 473.2501026633268 479.2751570413453 490.7423999854888L479.2751570413453 490.7423999854888Q482.54607442679026 497.99530375321456 482.54607442679026 505.9948299676179L482.54607442679026 505.9948299676179Q482.54607442679026 523.984875587565 470.0312600824792 534.0109484429505L470.0312600824792 534.0109484429505Q461.5339855702908 540.7305504630493 450.2990954202843 540.7305504630493L450.2990954202843 540.7305504630493L424.5228442849846 540.7305504630493L424.5228442849846 473.2501026633268ZM532.2853507554582 616.7438262248021L655.5136079071117 616.7438262248021L656.0113562048966 565.0135567049938L650.5361249292607 565.0135567049938L645.2742143526752 589.0121353482037Q640.01230377609 609.9886707548616 620.7778874116802 610.2375449037542L620.7778874116802 610.2375449037542L559.0215450364863 610.2375449037542L654.766985460434 472.0057319188641L654.766985460434 466.74382134227875L543.5202409054648 466.74382134227875L541.2803735654318 512.0033629908809L546.2934099931244 512.0033629908809L556.0350552497757 489.4980292410261Q563.536833166394 473.4989768122194 576.2649682097558 473.2501026633268L576.2649682097558 473.2501026633268L630.7684068172239 473.2501026633268L532.2853507554582 611.7307897971094L532.2853507554582 616.7438262248021Z " fill="#00000" transform="matrix(0.35425316146749514,0,0,0.3542531614674952,0,108.08551442348875)"/><path d="M769.5216686185365 614.4808806523866L825.222093241977 614.4808806523866L825.222093241977 608.5649330574421L807.2479573797408 608.5649330574421L807.2479573797408 551.9593361243925L828.8427824804131 551.9593361243925L865.211312777204 614.4808806523866L899.5432053773744 614.4808806523866Q899.5432053773744 609.4701053670511 896.8276884485473 608.7912261348444L896.8276884485473 608.7912261348444Q895.6962230615362 608.5649330574421 894.0798439372344 608.5649330574421L894.0798439372344 608.5649330574421L885.4483794134627 608.5649330574421L848.8535560392696 549.9226984277723Q870.4483811399417 544.6856300650344 878.4009664315066 527.422701017491L878.4009664315066 527.422701017491Q881.375104020222 520.6015811129373 881.375104020222 513.5541681309815L881.375104020222 513.5541681309815Q881.375104020222 496.5175321608403 866.6013988241035 486.26968851276683L866.6013988241035 486.26968851276683Q854.5432105568119 478.0908101437996 836.827695354464 478.0908101437996L836.827695354464 478.0908101437996L769.5216686185365 478.0908101437996L769.5216686185365 484.0067577387443L787.7220975581749 484.0067577387443L787.7220975581749 608.5649330574421L769.5216686185365 608.5649330574421L769.5216686185365 614.4808806523866ZM807.2479573797408 484.0067577387443L830.0065754499104 484.0067577387443Q849.5324352714763 484.0067577387443 857.0324344082368 499.91192832187414L857.0324344082368 499.91192832187414Q860.0065719969521 506.50675514902554 860.0065719969521 513.7804612083837L860.0065719969521 513.7804612083837Q860.0065719969521 530.138217946318 848.6272629618674 539.2545962073802L848.6272629618674 539.2545962073802Q840.9009707477046 545.364509297241 830.6854546821172 545.364509297241L830.6854546821172 545.364509297241L807.2479573797408 545.364509297241L807.2479573797408 484.0067577387443ZM927.9591503826003 566.0541620883043L927.9591503826003 566.0541620883043Q927.9591503826003 530.8170971785248 947.2910447092501 523.0908049643622L947.2910447092501 523.0908049643622Q952.2694924120996 521.2804603451441 957.7328538522398 521.2804603451441L957.7328538522398 521.2804603451441Q982.9806957738341 521.2804603451441 987.0539711670746 553.1231290938898L987.0539711670746 553.1231290938898Q987.7328503992813 558.554162951544 987.7328503992813 565.1489897786953L987.7328503992813 565.1489897786953Q987.7328503992813 603.3278646947043 966.816904530816 609.9226915218557L966.816904530816 609.9226915218557Q962.7436291375753 611.086484491353 958.4117330844466 611.086484491353L958.4117330844466 611.086484491353Q935.4591495193607 611.086484491353 929.5432019244162 583.8020048731383L929.5432019244162 583.8020048731383Q927.9591503826003 575.8494195815734 927.9591503826003 566.0541620883043ZM958.4117330844466 515.5908058276018L958.4117330844466 515.5908058276018Q936.590614906372 515.5908058276018 922.0432027876558 530.5908041011226L922.0432027876558 530.5908041011226Q908.6272560559506 544.4593369876321 908.6272560559506 565.1489897786953L908.6272560559506 565.1489897786953Q908.6272560559506 593.7912278613236 929.5432019244162 608.1123469026376L929.5432019244162 608.1123469026376Q942.2802694239143 616.7438114264093 957.7328538522398 616.7438114264093L957.7328538522398 616.7438114264093Q979.5539720303142 616.7438114264093 993.8750910716282 601.291226998084L993.8750910716282 601.291226998084Q1007.0647447259311 587.196401034172 1007.0647447259311 566.0541620883043L1007.0647447259311 566.0541620883043Q1007.0647447259311 537.4119240056762 985.9225057800633 523.5433911191667L985.9225057800633 523.5433911191667Q973.4117313579674 515.5908058276018 958.4117330844466 515.5908058276018ZM1067.291030897417 608.7912261348444L1067.291030897417 608.7912261348444L1057.0755148318294 608.7912261348444L1057.0755148318294 559.6856283385553Q1057.7543940640358 538.5757169751735 1072.0755131053502 529.233045636709L1072.0755131053502 529.233045636709Q1078.217753777697 525.3860633208708 1084.586287527446 525.3860633208708L1084.586287527446 525.3860633208708Q1098.4224928314698 525.3860633208708 1103.4332681168053 538.3494238977712L1103.4332681168053 538.3494238977712Q1105.4699058134256 543.5541646780231 1105.4699058134256 550.1489915051745L1105.4699058134256 550.1489915051745L1105.4699058134256 595.1489863257369Q1105.4699058134256 605.6231230512127 1099.5862858009668 607.659760747833L1099.5862858009668 607.659760747833Q1096.1595620574471 608.7912261348444 1088.4332698432845 608.7912261348444L1088.4332698432845 608.7912261348444L1088.4332698432845 614.4808806523866L1139.5755053361936 614.4808806523866Q1139.5755053361936 609.4701053670511 1136.1811091751601 609.0175192122466L1136.1811091751601 609.0175192122466Q1135.275936865551 608.7912261348444 1133.8858508186513 608.7912261348444L1133.8858508186513 608.7912261348444L1122.5388693660525 608.7912261348444L1122.5388693660525 552.411922279197Q1122.5388693660525 529.6856317915135 1106.859991860325 519.9227018807305L1106.859991860325 519.9227018807305Q1099.5862858009668 515.5908058276018 1091.1487867721116 515.5908058276018L1091.1487867721116 515.5908058276018Q1074.3384438793723 515.5908058276018 1063.4440485815785 529.0067525593067L1063.4440485815785 529.0067525593067Q1059.3384456058516 534.2438209220446 1056.8492217544272 540.6123546717938L1056.8492217544272 540.6123546717938L1055.9440494448181 517.8860641841103L1022.9699153090609 517.8860641841103L1022.9699153090609 523.5433911191667L1040.006551279202 523.5433911191667L1040.006551279202 595.1489863257369Q1040.006551279202 605.6231230512127 1034.1229312667433 607.659760747833L1034.1229312667433 607.659760747833Q1030.6962075232236 608.7912261348444 1022.9699153090609 608.7912261348444L1022.9699153090609 608.7912261348444L1022.9699153090609 614.4808806523866L1072.9806854149592 614.4808806523866Q1072.9806854149592 609.4701053670511 1069.5862892539253 609.0175192122466L1069.5862892539253 609.0175192122466Q1068.64878936183 608.7912261348444 1067.291030897417 608.7912261348444ZM1234.13368410785 616.7438114264093L1234.13368410785 616.7438114264093Q1251.6552338152815 616.7438114264093 1253.4655784344995 595.6015724805414L1253.4655784344995 595.6015724805414Q1253.6918715119018 594.2438140161281 1253.6918715119018 593.1123486291168L1253.6918715119018 593.1123486291168L1247.7759239169573 592.8860555517145Q1246.1918723751414 609.4701053670511 1238.9181663157833 609.6963984444534L1238.9181663157833 609.6963984444534Q1233.0022187208388 609.2438122896489 1232.7759256434365 597.8968308370501L1232.7759256434365 597.8968308370501L1232.7759256434365 549.9226984277723Q1232.7759256434365 517.4334780293058 1200.2543776624839 515.5908058276018L1200.2543776624839 515.5908058276018Q1198.2177399658635 515.5908058276018 1196.1811022692432 515.5908058276018L1196.1811022692432 515.5908058276018Q1170.7069672702469 515.5908058276018 1162.0755027464752 527.422701017491L1162.0755027464752 527.422701017491Q1159.359985817648 531.3020109158153 1159.359985817648 535.1489932316537L1159.359985817648 535.1489932316537Q1159.359985817648 542.1964062136096 1165.9548126447994 543.3278716006208L1165.9548126447994 543.3278716006208Q1167.0862780318107 543.5541646780231 1168.217743418822 543.5541646780231L1168.217743418822 543.5541646780231Q1173.4548117815598 543.5541646780231 1175.9440356329847 536.9593378508716L1175.9440356329847 536.9593378508716Q1179.144466299102 528.5541664045022 1180.2759316861134 526.9701148626865L1180.2759316861134 526.9701148626865Q1184.5755001567563 521.2804603451441 1193.6918784178188 521.2804603451441L1193.6918784178188 521.2804603451441Q1215.0604104410886 522.6382188095577 1215.7392896732954 544.6856300650344L1215.7392896732954 544.6856300650344L1215.7392896732954 559.0067491063485Q1162.3017958238775 559.0067491063485 1154.5755036097148 581.2804534392275L1154.5755036097148 581.2804534392275Q1153.2177451453013 585.6123494923564 1153.2177451453013 590.6231247776919L1153.2177451453013 590.6231247776919Q1153.2177451453013 607.8860538252353 1168.4440364962243 614.2545875749844L1168.4440364962243 614.2545875749844Q1174.586277168571 616.7438114264093 1181.4073970731247 616.7438114264093L1181.4073970731247 616.7438114264093Q1197.9914468884613 616.7438114264093 1209.3707559235463 605.3968299738104L1209.3707559235463 605.3968299738104Q1213.4440313167865 601.0649339206817 1215.5129965958931 596.2804517127482L1215.5129965958931 596.2804517127482Q1218.2285135247203 616.517518349007 1234.13368410785 616.7438114264093ZM1188.907396209885 607.659760747833L1188.907396209885 607.659760747833Q1175.0388633233756 607.659760747833 1171.870760239744 593.7912278613236L1171.870760239744 593.7912278613236Q1171.1595534250514 590.6231247776919 1171.1595534250514 586.7438148793675L1171.1595534250514 586.7438148793675Q1171.1595534250514 571.5175235284445 1188.6811031324828 567.4442481352039L1188.6811031324828 567.4442481352039Q1197.9914468884613 565.3752828560976 1215.7392896732954 565.1489897786953L1215.7392896732954 565.1489897786953L1215.7392896732954 583.3494187183338Q1212.3125659297752 599.0282962240614 1199.1229122754726 605.3968299738104L1199.1229122754726 605.3968299738104Q1193.918171495221 607.659760747833 1188.907396209885 607.659760747833ZM1308.6810893206493 608.7912261348444L1308.6810893206493 608.7912261348444L1296.428935558442 608.7912261348444L1296.428935558442 466.7438286912009L1262.3233360356735 466.7438286912009L1262.3233360356735 472.4011556262572L1279.3599720058146 472.4011556262572L1279.3599720058146 595.1489863257369Q1279.3599720058146 605.6231230512127 1273.4763519933563 607.659760747833L1273.4763519933563 607.659760747833Q1270.0496282498361 608.7912261348444 1262.3233360356735 608.7912261348444L1262.3233360356735 608.7912261348444L1262.3233360356735 614.4808806523866L1314.370743838192 614.4808806523866Q1314.370743838192 609.4701053670511 1310.9763476771582 609.0175192122466L1310.9763476771582 609.0175192122466Q1310.0711753675491 608.7912261348444 1308.6810893206493 608.7912261348444ZM1405.308233371412 590.3968317002897L1407.11857799063 614.4808806523866L1439.6077983890964 614.4808806523866Q1439.6077983890964 609.4701053670511 1436.2134022280625 609.0175192122466L1436.2134022280625 609.0175192122466Q1435.3082299184534 608.7912261348444 1433.9504714540399 608.7912261348444L1433.9504714540399 608.7912261348444L1422.5711624189553 608.7912261348444L1422.1185762641508 466.7438286912009L1383.4871151933376 466.7438286912009L1383.4871151933376 472.4011556262572L1405.0819402940097 472.4011556262572L1405.0819402940097 527.8752871722954Q1393.9289243363273 515.5908058276018 1375.0819437469681 515.5908058276018L1375.0819437469681 515.5908058276018Q1350.060394902776 515.5908058276018 1337.3233274032777 537.8645101604807L1337.3233274032777 537.8645101604807Q1329.597035189115 551.5067499695881 1329.597035189115 568.5757135222153L1329.597035189115 568.5757135222153Q1329.597035189115 596.7653654500388 1347.3448779739488 609.6963984444534L1347.3448779739488 609.6963984444534Q1357.334100962134 616.7438114264093 1369.3922892294258 616.7438114264093L1369.3922892294258 616.7438114264093Q1394.1552174137296 616.2912252716047 1405.308233371412 590.3968317002897L1405.308233371412 590.3968317002897ZM1348.9289295157646 565.8278690109021L1348.9289295157646 565.8278690109021Q1348.9289295157646 533.7912347672402 1366.191858563308 524.2545979338595L1366.191858563308 524.2545979338595Q1371.655220003448 521.2804603451441 1378.2500468305998 521.2804603451441L1378.2500468305998 521.2804603451441Q1394.8340966459364 521.2804603451441 1401.8815096278922 539.028303129978L1401.8815096278922 539.028303129978Q1405.7608195262164 548.5649399633587 1405.7608195262164 561.5283005402592L1405.7608195262164 561.5283005402592Q1405.7608195262164 588.7804525759879 1392.1185797171092 601.0649339206817L1392.1185797171092 601.0649339206817Q1384.8448736577511 607.659760747833 1375.5345299017727 607.659760747833L1375.5345299017727 607.659760747833Q1356.8815148073295 607.659760747833 1351.1918602897872 584.9334702601496L1351.1918602897872 584.9334702601496Q1348.9289295157646 576.5282988137802 1348.9289295157646 565.8278690109021ZM1495.0819299351347 614.4808806523866L1607.1293308317363 614.4808806523866L1607.5819169865408 567.4442481352039L1602.6034692836915 567.4442481352039L1597.8189870757578 589.2653663132784Q1593.0345048678246 608.3386399800398 1575.545282742879 608.5649330574421L1575.545282742879 608.5649330574421L1519.392271964634 608.5649330574421L1606.4504515995295 482.875292351733L1606.4504515995295 478.0908101437996L1505.2974460007222 478.0908101437996L1503.2608083041018 519.2438226485237L1507.8189974346328 519.2438226485237L1516.6767550358068 498.78046293486284Q1523.4978749403604 484.23305081614654 1535.1034770528477 484.0067577387443L1535.1034770528477 484.0067577387443L1584.6293334214552 484.0067577387443L1495.0819299351347 609.9226915218557L1495.0819299351347 614.4808806523866ZM1703.3038887276944 616.7438114264093L1703.3038887276944 616.7438114264093Q1720.79311085264 616.7438114264093 1722.603455471858 595.6015724805414L1722.603455471858 595.6015724805414Q1722.8297485492603 594.2438140161281 1722.8297485492603 593.1123486291168L1722.8297485492603 593.1123486291168L1716.9461285368016 592.8860555517145Q1715.3297494125 609.4701053670511 1708.0560433531418 609.6963984444534L1708.0560433531418 609.6963984444534Q1702.1400957581973 609.2438122896489 1701.913802680795 597.8968308370501L1701.913802680795 597.8968308370501L1701.913802680795 549.9226984277723Q1701.913802680795 517.4334780293058 1669.4245822823282 515.5908058276018L1669.4245822823282 515.5908058276018Q1667.3879445857083 515.5908058276018 1665.3189793066017 515.5908058276018L1665.3189793066017 515.5908058276018Q1639.8771718900912 515.5908058276018 1631.2457073663195 527.422701017491L1631.2457073663195 527.422701017491Q1628.4978628550061 531.3020109158153 1628.4978628550061 535.1489932316537L1628.4978628550061 535.1489932316537Q1628.4978628550061 542.1964062136096 1635.092689682158 543.3278716006208L1635.092689682158 543.3278716006208Q1636.2241550691692 543.5541646780231 1637.3879480386663 543.5541646780231L1637.3879480386663 543.5541646780231Q1642.5926888189183 543.5541646780231 1645.114240252829 536.9593378508716L1645.114240252829 536.9593378508716Q1648.2823433364606 528.5541664045022 1649.413808723472 526.9701148626865L1649.413808723472 526.9701148626865Q1653.7457047766006 521.2804603451441 1662.8297554551768 521.2804603451441L1662.8297554551768 521.2804603451441Q1684.1982874784471 522.6382188095577 1684.8771667106535 544.6856300650344L1684.8771667106535 544.6856300650344L1684.8771667106535 559.0067491063485Q1631.4720004437218 559.0067491063485 1623.745708229559 581.2804534392275L1623.745708229559 581.2804534392275Q1622.3879497651455 585.6123494923564 1622.3879497651455 590.6231247776919L1622.3879497651455 590.6231247776919Q1622.3879497651455 607.8860538252353 1637.6142411160686 614.2545875749844L1637.6142411160686 614.2545875749844Q1643.7241542059296 616.7438114264093 1650.5452741104832 616.7438114264093L1650.5452741104832 616.7438114264093Q1667.161651508306 616.7438114264093 1678.5086329609044 605.3968299738104L1678.5086329609044 605.3968299738104Q1682.6142359366313 601.0649339206817 1684.6508736332516 596.2804517127482L1684.6508736332516 596.2804517127482Q1687.3663905620788 616.517518349007 1703.3038887276944 616.7438114264093ZM1658.0452732472436 607.659760747833L1658.0452732472436 607.659760747833Q1644.20906794322 607.659760747833 1641.0086372771025 593.7912278613236L1641.0086372771025 593.7912278613236Q1640.3297580448957 590.6231247776919 1640.3297580448957 586.7438148793675L1640.3297580448957 586.7438148793675Q1640.3297580448957 571.5175235284445 1657.8189801698413 567.4442481352039L1657.8189801698413 567.4442481352039Q1667.161651508306 565.3752828560976 1684.8771667106535 565.1489897786953L1684.8771667106535 565.1489897786953L1684.8771667106535 583.3494187183338Q1681.48277054962 599.0282962240614 1668.2931168953169 605.3968299738104L1668.2931168953169 605.3968299738104Q1663.056048532579 607.659760747833 1658.0452732472436 607.659760747833ZM1775.135777011667 608.7912261348444L1775.135777011667 608.7912261348444L1764.8879333635932 608.7912261348444L1764.8879333635932 559.6856283385553Q1765.5668125958005 539.7071823621848 1778.7564662501031 529.9119248689158L1778.7564662501031 529.9119248689158Q1784.89870692245 525.3860633208708 1791.0409475947968 525.3860633208708L1791.0409475947968 525.3860633208708Q1802.3879290473956 525.3860633208708 1806.7198251005243 537.8645101604807L1806.7198251005243 537.8645101604807Q1808.5301697197424 543.3278716006208 1808.5301697197424 550.1489915051745L1808.5301697197424 550.1489915051745L1808.5301697197424 595.1489863257369Q1808.5301697197424 605.6231230512127 1803.5193944344069 607.659760747833L1803.5193944344069 607.659760747833Q1800.3512913507752 608.7912261348444 1792.6249991366126 608.7912261348444L1792.6249991366126 608.7912261348444L1792.6249991366126 614.4808806523866L1841.5043038554995 614.4808806523866Q1841.5043038554995 609.4701053670511 1838.0775801119794 609.0175192122466L1838.0775801119794 609.0175192122466Q1837.1724078023703 608.7912261348444 1835.8146493379568 608.7912261348444L1835.8146493379568 608.7912261348444L1825.5668056898835 608.7912261348444L1825.5668056898835 552.411922279197L1825.5668056898835 550.6015776599791Q1829.2198225108054 534.0175278446425 1841.7305969329018 527.422701017491L1841.7305969329018 527.422701017491Q1846.4827515583488 525.1597702434685 1850.814647611478 525.1597702434685L1850.814647611478 525.1597702434685Q1862.4202497239648 525.1597702434685 1867.1724043494123 537.1856309282739L1867.1724043494123 537.1856309282739Q1869.435335123435 542.8752854458163 1869.435335123435 550.1489915051745L1869.435335123435 550.1489915051745L1869.435335123435 595.1489863257369Q1869.435335123435 605.6231230512127 1864.4568874205852 607.659760747833L1864.4568874205852 607.659760747833Q1861.2564567544673 608.7912261348444 1853.5301645403051 608.7912261348444L1853.5301645403051 608.7912261348444L1853.5301645403051 614.4808806523866L1903.7672277236052 614.4808806523866Q1903.7672277236052 609.4701053670511 1900.3728315625713 609.0175192122466L1900.3728315625713 609.0175192122466Q1899.4676592529622 608.7912261348444 1898.0775732060629 608.7912261348444L1898.0775732060629 608.7912261348444L1886.5042986760618 608.7912261348444L1886.5042986760618 552.411922279197Q1886.5042986760618 529.0067525593067 1871.2780073251388 519.6964088033283L1871.2780073251388 519.6964088033283Q1864.4568874205852 515.5908058276018 1856.5043021290203 515.5908058276018L1856.5043021290203 515.5908058276018Q1839.2090454989907 515.5908058276018 1828.7672363560014 531.7545970706199L1828.7672363560014 531.7545970706199Q1826.0517194271738 535.8278724638604 1824.20904722547 540.3860615943915L1824.20904722547 540.3860615943915Q1820.1357718322292 522.4119257321554 1806.2672389457198 517.2071849519035L1806.2672389457198 517.2071849519035Q1802.1616359699933 515.5908058276018 1797.8620674993504 515.5908058276018L1797.8620674993504 515.5908058276018Q1781.4719831789298 515.5908058276018 1770.8038809585382 529.4593387141113L1770.8038809585382 529.4593387141113Q1766.9245710602136 534.4701139994469 1764.6616402861914 540.6123546717938L1764.6616402861914 540.6123546717938L1763.7564679765824 517.8860641841103L1730.7823338408252 517.8860641841103L1730.7823338408252 523.5433911191667L1747.8512973934526 523.5433911191667L1747.8512973934526 595.1489863257369Q1747.8512973934526 605.6231230512127 1741.9353497985076 607.659760747833L1741.9353497985076 607.659760747833Q1738.5086260549879 608.7912261348444 1730.7823338408252 608.7912261348444L1730.7823338408252 608.7912261348444L1730.7823338408252 614.4808806523866L1780.7931039467235 614.4808806523866Q1780.7931039467235 609.6963984444534 1777.3987077856896 609.0175192122466L1777.3987077856896 609.0175192122466Q1776.2672423986783 608.7912261348444 1775.135777011667 608.7912261348444ZM1979.0258397510975 616.7438114264093L1979.0258397510975 616.7438114264093Q1999.004285727468 616.7438114264093 2012.6465255365756 601.7438131528885L2012.6465255365756 601.7438131528885Q2025.3835930360738 587.196401034172 2025.3835930360738 564.922696701293L2025.3835930360738 564.922696701293Q2025.3835930360738 539.933475439587 2011.7413532269666 525.8386494756752L2011.7413532269666 525.8386494756752Q2001.525837161379 515.5908058276018 1986.5258388878578 515.5908058276018L1986.5258388878578 515.5908058276018Q1961.7305831210683 515.5908058276018 1951.2887739780786 537.8645101604807L1951.2887739780786 537.8645101604807Q1950.1573085910672 539.933475439587 1949.4461017763747 541.9701131362074L1949.4461017763747 541.9701131362074L1949.4461017763747 466.7438286912009L1915.372829836092 466.7438286912009L1915.372829836092 472.4011556262572L1932.4094658062331 472.4011556262572L1932.4094658062331 595.1489863257369Q1932.4094658062331 605.6231230512127 1926.493518211289 607.659760747833L1926.493518211289 607.659760747833Q1923.0991220502551 608.7912261348444 1915.372829836092 608.7912261348444L1915.372829836092 608.7912261348444L1915.372829836092 614.4808806523866L1944.0150679187204 614.4808806523866L1946.0517056153408 599.4808823788659Q1955.8146355261238 615.1597598845934 1975.5991160075778 616.517518349007L1975.5991160075778 616.517518349007Q1977.4094606267959 616.7438114264093 1979.0258397510975 616.7438114264093ZM1979.478425905902 524.707184088664L1979.478425905902 524.707184088664Q1998.0991134178594 524.707184088664 2003.7887679354017 547.4334745763474L2003.7887679354017 547.4334745763474Q2006.0516987094238 555.8386460227168 2006.0516987094238 566.5067482431089L2006.0516987094238 566.5067482431089Q2006.0516987094238 598.5757100692568 1988.788769661881 608.1123469026376L1988.788769661881 608.1123469026376Q1983.3254082217404 611.086484491353 1976.730581394589 611.086484491353L1976.730581394589 611.086484491353Q1959.693945424448 611.086484491353 1952.6465324424921 592.8860555517145L1952.6465324424921 592.8860555517145Q1949.2198086989724 583.3494187183338 1949.2198086989724 570.8386442962377L1949.2198086989724 570.8386442962377Q1949.2198086989724 543.3278716006208 1962.8620485080796 531.0757178384131L1962.8620485080796 531.0757178384131Q1970.1357545674377 524.707184088664 1979.478425905902 524.707184088664ZM2092.2047060347104 608.7912261348444L2092.2047060347104 608.7912261348444L2075.846949296776 608.7912261348444L2075.846949296776 563.5649382368796Q2075.846949296776 542.8752854458163 2088.584016796275 530.3645110237203L2088.584016796275 530.3645110237203Q2093.562464499125 525.612356398273 2096.9891882426446 525.3860633208708L2096.9891882426446 525.3860633208708Q2100.836170558483 525.3860633208708 2104.0366012246004 531.0757178384131L2104.0366012246004 531.0757178384131Q2107.6572904630366 537.4119240056762 2110.857721129154 538.3494238977712L2110.857721129154 538.3494238977712Q2112.2154795935676 538.8020100525757 2113.573238057981 538.8020100525757L2113.573238057981 538.8020100525757Q2120.3943579625347 538.8020100525757 2122.204702581753 532.2071832254244L2122.204702581753 532.2071832254244Q2122.6572887365573 530.8170971785248 2122.6572887365573 529.4593387141113L2122.6572887365573 529.4593387141113Q2122.6572887365573 519.2438226485237 2112.2154795935676 516.9808918745013L2112.2154795935676 516.9808918745013Q2109.952548819545 516.5283057196968 2107.883583540439 516.5283057196968L2107.883583540439 516.5283057196968Q2094.2413437313307 516.5283057196968 2083.5732415109396 528.1015802496977L2083.5732415109396 528.1015802496977Q2078.562466225603 533.564941689838 2075.620656219374 540.3860615943915L2075.620656219374 540.3860615943915L2074.7154839097657 517.8860641841103L2041.741349774008 517.8860641841103L2041.741349774008 523.5433911191667L2058.810313326635 523.5433911191667L2058.810313326635 595.1489863257369Q2058.810313326635 605.6231230512127 2052.8943657316913 607.659760747833L2052.8943657316913 607.659760747833Q2049.4676419881707 608.7912261348444 2041.741349774008 608.7912261348444L2041.741349774008 608.7912261348444L2041.741349774008 614.4808806523866L2097.8943605522536 614.4808806523866Q2097.8943605522536 609.4701053670511 2094.467636808734 609.0175192122466L2094.467636808734 609.0175192122466Q2093.562464499125 608.7912261348444 2092.2047060347104 608.7912261348444ZM2212.6896059601686 616.7438114264093L2212.6896059601686 616.7438114264093Q2230.1788280851133 616.7438114264093 2231.9891727043314 595.6015724805414L2231.9891727043314 595.6015724805414Q2232.2154657817337 594.2438140161281 2232.2154657817337 593.1123486291168L2232.2154657817337 593.1123486291168L2226.331845769276 592.8860555517145Q2224.7154666449733 609.4701053670511 2217.441760585615 609.6963984444534L2217.441760585615 609.6963984444534Q2211.5581405731564 609.2438122896489 2211.2995199132683 597.8968308370501L2211.2995199132683 597.8968308370501L2211.2995199132683 549.9226984277723Q2211.2995199132683 517.4334780293058 2178.810299514802 515.5908058276018L2178.810299514802 515.5908058276018Q2176.7736618181816 515.5908058276018 2174.7046965390755 515.5908058276018L2174.7046965390755 515.5908058276018Q2149.262889122565 515.5908058276018 2140.6314245987933 527.422701017491L2140.6314245987933 527.422701017491Q2137.8835800874804 531.3020109158153 2137.8835800874804 535.1489932316537L2137.8835800874804 535.1489932316537Q2137.8835800874804 542.1964062136096 2144.4784069146317 543.3278716006208L2144.4784069146317 543.3278716006208Q2145.609872301643 543.5541646780231 2146.77366527114 543.5541646780231L2146.77366527114 543.5541646780231Q2151.978406051392 543.5541646780231 2154.4999574853027 536.9593378508716L2154.4999574853027 536.9593378508716Q2157.6680605689344 528.5541664045022 2158.7995259559457 526.9701148626865L2158.7995259559457 526.9701148626865Q2163.1314220090744 521.2804603451441 2172.2154726876506 521.2804603451441L2172.2154726876506 521.2804603451441Q2193.5840047109205 522.6382188095577 2194.2628839431272 544.6856300650344L2194.2628839431272 544.6856300650344L2194.2628839431272 559.0067491063485Q2140.8577176761955 559.0067491063485 2133.131425462033 581.2804534392275L2133.131425462033 581.2804534392275Q2131.7736669976193 585.6123494923564 2131.7736669976193 590.6231247776919L2131.7736669976193 590.6231247776919Q2131.7736669976193 607.8860538252353 2146.9999583485423 614.2545875749844L2146.9999583485423 614.2545875749844Q2153.1098714384034 616.7438114264093 2159.930991342957 616.7438114264093L2159.930991342957 616.7438114264093Q2176.5473687407793 616.7438114264093 2187.894350193378 605.3968299738104L2187.894350193378 605.3968299738104Q2191.9999531691046 601.0649339206817 2194.036590865725 596.2804517127482L2194.036590865725 596.2804517127482Q2196.752107794552 616.517518349007 2212.6896059601686 616.7438114264093ZM2167.4309904797174 607.659760747833L2167.4309904797174 607.659760747833Q2153.5947851756937 607.659760747833 2150.3943545095763 593.7912278613236L2150.3943545095763 593.7912278613236Q2149.7154752773695 590.6231247776919 2149.7154752773695 586.7438148793675L2149.7154752773695 586.7438148793675Q2149.7154752773695 571.5175235284445 2167.204697402315 567.4442481352039L2167.204697402315 567.4442481352039Q2176.5473687407793 565.3752828560976 2194.2628839431272 565.1489897786953L2194.2628839431272 565.1489897786953L2194.2628839431272 583.3494187183338Q2190.8684877820933 599.0282962240614 2177.6788341277907 605.3968299738104L2177.6788341277907 605.3968299738104Q2172.441765765053 607.659760747833 2167.4309904797174 607.659760747833ZM2284.5214942441407 608.7912261348444L2284.5214942441407 608.7912261348444L2274.2736505960675 608.7912261348444L2274.2736505960675 559.6856283385553Q2274.9525298282742 538.5757169751735 2289.273648869588 529.233045636709L2289.273648869588 529.233045636709Q2295.415889541935 525.3860633208708 2301.784423291684 525.3860633208708L2301.784423291684 525.3860633208708Q2315.6529561781936 525.3860633208708 2320.663731463529 538.3494238977712L2320.663731463529 538.3494238977712Q2322.7003691601494 543.5541646780231 2322.7003691601494 550.1489915051745L2322.7003691601494 550.1489915051745L2322.7003691601494 595.1489863257369Q2322.7003691601494 605.6231230512127 2316.784421565205 607.659760747833L2316.784421565205 607.659760747833Q2313.390025404171 608.7912261348444 2305.6314056075225 608.7912261348444L2305.6314056075225 608.7912261348444L2305.6314056075225 614.4808806523866L2356.7736411004316 614.4808806523866Q2356.7736411004316 609.4701053670511 2353.3792449393977 609.0175192122466L2353.3792449393977 609.0175192122466Q2352.4740726297887 608.7912261348444 2351.116314165375 608.7912261348444L2351.116314165375 608.7912261348444L2339.7370051302905 608.7912261348444L2339.7370051302905 552.411922279197Q2339.7370051302905 529.6856317915135 2324.058127624563 519.9227018807305L2324.058127624563 519.9227018807305Q2316.784421565205 515.5908058276018 2308.3792501188354 515.5908058276018L2308.3792501188354 515.5908058276018Q2291.5689072260966 515.5908058276018 2280.6421843458165 529.0067525593067L2280.6421843458165 529.0067525593067Q2276.53658137009 534.2438209220446 2274.047357518665 540.6123546717938L2274.047357518665 540.6123546717938L2273.142185209056 517.8860641841103L2240.1680510732986 517.8860641841103L2240.1680510732986 523.5433911191667L2257.2370146259263 523.5433911191667L2257.2370146259263 595.1489863257369Q2257.2370146259263 605.6231230512127 2251.321067030982 607.659760747833L2251.321067030982 607.659760747833Q2247.926670869948 608.7912261348444 2240.1680510732986 608.7912261348444L2240.1680510732986 608.7912261348444L2240.1680510732986 614.4808806523866L2290.1788211791973 614.4808806523866Q2290.1788211791973 609.4701053670511 2286.7844250181633 609.0175192122466L2286.7844250181633 609.0175192122466Q2285.8792527085543 608.7912261348444 2284.5214942441407 608.7912261348444ZM2390.8792406232005 566.0541620883043L2390.8792406232005 566.0541620883043Q2390.8792406232005 530.8170971785248 2410.21113494985 523.0908049643622L2410.21113494985 523.0908049643622Q2415.2219102351855 521.2804603451441 2420.652944092839 521.2804603451441L2420.652944092839 521.2804603451441Q2445.900786014434 521.2804603451441 2449.9740614076745 553.1231290938898L2449.9740614076745 553.1231290938898Q2450.6529406398813 558.554162951544 2450.6529406398813 565.1489897786953L2450.6529406398813 565.1489897786953Q2450.6529406398813 603.3278646947043 2429.7693223539018 609.9226915218557L2429.7693223539018 609.9226915218557Q2425.6637193781753 611.086484491353 2421.3318233250466 611.086484491353L2421.3318233250466 611.086484491353Q2398.379239759961 611.086484491353 2392.4632921650154 583.8020048731383L2392.4632921650154 583.8020048731383Q2390.8792406232005 575.8494195815734 2390.8792406232005 566.0541620883043ZM2421.3318233250466 515.5908058276018L2421.3318233250466 515.5908058276018Q2399.5107051469713 515.5908058276018 2384.963293028255 530.5908041011226L2384.963293028255 530.5908041011226Q2371.579673879036 544.4593369876321 2371.579673879036 565.1489897786953L2371.579673879036 565.1489897786953Q2371.579673879036 593.7912278613236 2392.4632921650154 608.1123469026376L2392.4632921650154 608.1123469026376Q2405.2003596645136 616.7438114264093 2420.652944092839 616.7438114264093L2420.652944092839 616.7438114264093Q2442.474062270914 616.7438114264093 2456.795181312228 601.291226998084L2456.795181312228 601.291226998084Q2469.984834966531 587.196401034172 2469.984834966531 566.0541620883043L2469.984834966531 566.0541620883043Q2469.984834966531 537.4119240056762 2448.842596020663 523.5433911191667L2448.842596020663 523.5433911191667Q2436.3318215985673 515.5908058276018 2421.3318233250466 515.5908058276018Z " fill="#521cb6" transform="matrix(0.35425316146749514,0,0,0.3542531614674952,0,108.08551442348875)"/></g></svg>